<!DOCTYPE svg PUBLIC "-//W3C//DTD SVG 1.1//EN" "http://www.w3.org/Graphics/SVG/1.1/DTD/svg11.dtd">
<!-- Uploaded to: SVG Repo, www.svgrepo.com, Transformed by: SVG Repo Mixer Tools -->
<svg width="800px" height="800px" viewBox="0 0 20 20" xmlns="http://www.w3.org/2000/svg" fill="#000000">
<g id="SVGRepo_bgCarrier" stroke-width="0"/>
<g id="SVGRepo_tracerCarrier" stroke-linecap="round" stroke-linejoin="round"/>
<g id="SVGRepo_iconCarrier">
<path d="M18 5.65l-8-3.555L2 5.65V19H0V5c0-.396.232-.753.594-.913l9-4a.999.999 0 01.812 0l9 4A1 1 0 0120 5v14h-2V5.65z" fill="#71717A"/>
<path d="M9 15a.997.997 0 01-.707-.293l-2-2a1 1 0 011.414-1.414L9 12.586l3.293-3.293a1 1 0 111.414 1.415l-4 4A.999.999 0 019 15z" fill="#71717A"/>
</g>
</svg>