<!DOCTYPE svg PUBLIC "-//W3C//DTD SVG 1.1//EN" "http://www.w3.org/Graphics/SVG/1.1/DTD/svg11.dtd">
<!-- Uploaded to: SVG Repo, www.svgrepo.com, Transformed by: SVG Repo Mixer Tools -->
<svg width="800px" height="800px" viewBox="0 0 24 24" xmlns="http://www.w3.org/2000/svg" fill="#71717A">
<g id="SVGRepo_bgCarrier" stroke-width="0"/>
<g id="SVGRepo_tracerCarrier" stroke-linecap="round" stroke-linejoin="round"/>
<g id="SVGRepo_iconCarrier"> <defs> <style>.cls-1{fill:#71717A;}.cls-2{fill:#71717A;}</style> </defs> <title>Icon_24px_Routes_Color</title> <g data-name="Product Icons"> <g> <polygon class="cls-1" points="16.68 18.94 12.81 18.94 4.43 8.45 2 8.45 2 5.02 5.94 5.02 14.34 15.51 16.68 15.51 16.68 12.79 22 17.22 16.68 21.65 16.68 18.94"/> <polygon class="cls-2" points="12.46 10.84 14.34 8.49 16.68 8.49 16.68 11.21 22 6.78 16.68 2.35 16.68 5.06 12.81 5.06 10.33 8.17 12.46 10.84"/> <polygon class="cls-2" points="6.33 13.16 4.43 15.55 2 15.55 2 18.98 5.94 18.98 8.46 15.83 6.33 13.16"/> </g> </g> </g>
</svg>